<?xml version="1.0" standalone="no"?>
<svg xmlns="http://www.w3.org/2000/svg" viewBox="0 0 133 70" width="133" height="70"><g fill="#DE8C26" color="#DE8C26" transform="translate(48.765 0) scale(0.2734375) "><svg width="128.0" height="128.0" x="0.0" y="0.0" viewBox="0 0 128 128"><g><g><g><path d="M68.237,108.682H35.01c-0.785,0-1.498-0.459-1.822-1.175c-0.324-0.715-0.2-1.554,0.318-2.144l2.019-2.303     c2.502-2.899,3.321-6.963,2.127-10.593c-0.2-0.609-0.096-1.278,0.28-1.798s0.979-0.827,1.62-0.827h23.973     c0.642,0,1.244,0.308,1.62,0.827s0.48,1.188,0.28,1.798c-1.24,3.773-0.399,7.715,2.251,10.544l2.063,2.352     c0.518,0.59,0.642,1.429,0.318,2.144C69.734,108.223,69.022,108.682,68.237,108.682z M39.337,104.682h24.512     c-2.352-3.047-3.366-6.966-2.831-10.839H42.056C42.569,97.636,41.603,101.547,39.337,104.682z"></path><g><path d="M78.229,35.234H34.617c-1.104,0-2-0.896-2-2s0.896-2,2-2h43.612c1.104,0,2,0.896,2,2S79.334,35.234,78.229,35.234z"></path><path d="M78.229,50.186H34.617c-1.104,0-2-0.896-2-2s0.896-2,2-2h43.612c1.104,0,2,0.896,2,2S79.334,50.186,78.229,50.186z"></path><path d="M78.229,65.137H34.617c-1.104,0-2-0.896-2-2s0.896-2,2-2h43.612c1.104,0,2,0.896,2,2S79.334,65.137,78.229,65.137z"></path></g></g><g><path d="M124.005,97.179c-0.001,0-0.001,0-0.002,0l-45.614-0.058c-1.084-0.001-1.969-0.866-1.997-1.949l-0.083-3.271     c-0.004-0.181,0.016-0.361,0.06-0.537l0.179-0.715V42.716c0-1.104,0.896-2,2-2H124c1.104,0,2,0.896,2,2l0.005,52.463     c0,0.53-0.211,1.04-0.586,1.415C125.043,96.969,124.535,97.179,124.005,97.179z M80.34,93.124l41.665,0.052L122,44.716H80.547     v46.181c0,0.164-0.02,0.327-0.06,0.486l-0.173,0.689L80.34,93.124z M78.547,90.896h0.01H78.547z"></path><path d="M78.547,93.758H7.588c-3.051,0-5.533-2.504-5.533-5.582V76.321c0-1.104,0.896-2,2-2h74.492c1.104,0,2,0.896,2,2v15.437     C80.547,92.862,79.651,93.758,78.547,93.758z M6.055,78.321v9.854c0,0.857,0.702,1.582,1.533,1.582h68.958V78.321H6.055z"></path><path d="M124,44.716H78.547c-1.104,0-2-0.896-2-2v-8.658c0-2.835,2.503-5.142,5.581-5.142h38.291     c3.078,0,5.581,2.307,5.581,5.142v8.658C126,43.82,125.104,44.716,124,44.716z M80.547,40.716H122v-6.658     c0-0.63-0.709-1.142-1.581-1.142H82.128c-0.872,0-1.581,0.512-1.581,1.142V40.716z"></path><path d="M78.547,78.321H4c-1.104,0-2-0.896-2-2V23.582C2,20.504,4.482,18,7.533,18h87.818c3.071,0,5.485,2.401,5.616,5.585     l0.001,7.331c0,1.104-0.896,2-2,2h-16.84c-0.872,0-1.581,0.512-1.581,1.142v42.264C80.547,77.426,79.651,78.321,78.547,78.321z      M6,74.321h70.547V34.058c0-2.835,2.503-5.142,5.581-5.142h14.84v-5.249C96.934,22.88,96.367,22,95.351,22H7.533     C6.702,22,6,22.725,6,23.582V74.321z"></path><path d="M124,97.152H78.547c-1.104,0-2-0.896-2-2V42.716c0-1.104,0.896-2,2-2H124c1.104,0,2,0.896,2,2v52.437     C126,96.257,125.104,97.152,124,97.152z M80.547,93.152H122V44.716H80.547V93.152z"></path><path d="M120.35,110H82.128c-3.078,0-5.581-2.307-5.581-5.142v-9.706c0-1.104,0.896-2,2-2h45.384c1.104,0,2,0.896,2,2v9.706     C125.931,107.693,123.428,110,120.35,110z M80.547,97.152v7.706c0,0.63,0.709,1.142,1.581,1.142h38.222     c0.872,0,1.581-0.512,1.581-1.142v-7.706H80.547z"></path></g><g><ellipse cx="101.962" cy="101.576" rx="0.689" ry="0.698"></ellipse><path d="M101.962,104.274c-1.483,0-2.689-1.21-2.689-2.698s1.206-2.698,2.689-2.698c1.482,0,2.688,1.21,2.688,2.698     S103.445,104.274,101.962,104.274z M101.962,100.274c-0.723,0-1.312,0.584-1.312,1.302s0.588,1.302,1.312,1.302     s1.311-0.584,1.311-1.302S102.686,100.274,101.962,100.274z"></path></g><g><path d="M20.15,28.525c-0.602-0.523-1.544-0.523-2.146,0c-0.305,0.265-0.48,0.639-0.48,1.024s0.175,0.76,0.533,1.064l4.199,2.772     l-4.251,2.812c-0.305,0.265-0.48,0.638-0.48,1.023c0,0.387,0.174,0.761,0.479,1.026h0c0.307,0.267,0.701,0.397,1.088,0.397     c0.373,0,0.737-0.121,1.008-0.359l6.074-4.077c0.25-0.21,0.393-0.51,0.393-0.822s-0.144-0.612-0.436-0.854L20.15,28.525z"></path><path d="M20.15,43.325c-0.603-0.525-1.544-0.525-2.146,0c-0.305,0.265-0.48,0.639-0.48,1.024s0.175,0.76,0.533,1.064l4.199,2.771     l-4.251,2.813c-0.305,0.265-0.48,0.639-0.48,1.024s0.175,0.76,0.48,1.024c0.307,0.267,0.701,0.397,1.088,0.397     c0.373,0,0.737-0.121,1.008-0.359l6.075-4.077c0.25-0.21,0.393-0.51,0.393-0.821c0-0.313-0.143-0.612-0.436-0.854L20.15,43.325z"></path><path d="M20.15,58.124c-0.602-0.523-1.543-0.523-2.146,0c-0.31,0.27-0.479,0.634-0.479,1.024c0,0.392,0.17,0.756,0.533,1.065     l4.199,2.771l-4.251,2.813c-0.305,0.265-0.48,0.639-0.48,1.024s0.175,0.76,0.48,1.024c0.307,0.267,0.701,0.397,1.088,0.397     c0.373,0,0.737-0.121,1.008-0.359l6.074-4.077c0.25-0.21,0.393-0.51,0.393-0.822s-0.144-0.612-0.436-0.854L20.15,58.124z"></path><path d="M94.227,63.591c0-0.432-0.188-0.832-0.53-1.13c-0.669-0.584-1.719-0.582-2.395,0.006l-6.531,5.898     c-0.253,0.229-0.392,0.535-0.392,0.862s0.139,0.634,0.393,0.862l6.531,5.899l0.007,0.007c0.334,0.29,0.764,0.436,1.193,0.436     s0.859-0.146,1.194-0.437c0.342-0.298,0.53-0.699,0.53-1.13c0-0.432-0.188-0.833-0.53-1.131l-5.182-4.507l5.182-4.507     C94.039,64.423,94.227,64.022,94.227,63.591z"></path><path d="M117.741,68.3l-7.005-5.874c-0.67-0.582-1.718-0.582-2.388,0c-0.342,0.298-0.53,0.698-0.53,1.13s0.188,0.832,0.53,1.13     l5.182,4.507l-5.182,4.507c-0.342,0.298-0.53,0.698-0.53,1.13s0.188,0.832,0.53,1.13c0.336,0.292,0.767,0.438,1.196,0.438     c0.428,0,0.854-0.144,1.185-0.432l7.012-5.879c0.272-0.229,0.429-0.554,0.429-0.894S118.013,68.527,117.741,68.3z"></path><path d="M105.188,62.146c-0.838-0.376-1.842-0.086-2.283,0.66l-6.779,11.362l-0.001,0.001c-0.214,0.362-0.263,0.778-0.138,1.174     c0.133,0.42,0.458,0.772,0.889,0.966c0.248,0.111,0.51,0.164,0.768,0.164c0.613,0,1.201-0.299,1.51-0.821l6.788-11.362     c0.214-0.363,0.263-0.781,0.137-1.177C105.945,62.691,105.62,62.34,105.188,62.146z"></path></g></g></g></svg></g><line x1="49.81400000000001" y1="41" x2="82.714" y2="41" stroke="#000000" stroke-linecap="round"></line><path fill="#000000" fill-rule="nonzero" d="M3.53 18.19L0 18.48L0 0.62L3.53 0.34L3.53 7.63L6.89 7.63L6.89 0.62L10.42 0.34L10.42 18.19L6.89 18.48L6.89 10.85L3.53 10.85L3.53 18.19ZM17.86 18.65Q15.46 18.65 14.18 16.74Q12.91 14.83 12.91 11.66L12.91 11.66Q12.91 8.45 14.21 6.55Q15.50 4.66 17.98 4.66L17.98 4.66Q20.33 4.66 21.58 6.55Q22.82 8.45 22.82 11.66L22.82 11.66Q22.82 11.86 22.75 11.94Q22.68 12.02 22.68 12.05L22.68 12.05L16.27 12.05Q16.27 13.61 16.68 14.89Q17.09 16.18 17.93 16.18L17.93 16.18Q18.86 16.18 19.32 15.10Q19.78 14.02 19.80 13.97L19.80 13.97L22.34 14.93Q21.84 16.66 20.74 17.65Q19.63 18.65 17.86 18.65L17.86 18.65ZM16.27 10.10L19.51 10.10Q19.51 8.66 19.13 7.82Q18.74 6.98 17.93 6.98L17.93 6.98Q17.52 6.98 17.14 7.39Q16.75 7.80 16.51 8.52Q16.27 9.24 16.27 10.10L16.27 10.10ZM24.86 18.48L24.86 5.11L28.22 4.82L28.22 6.55Q29.26 5.64 30.25 5.15Q31.25 4.66 32.09 4.66L32.09 4.66Q33.36 4.66 34.16 5.58Q34.97 6.50 34.97 8.06L34.97 8.06L34.97 18.19L31.61 18.48L31.61 9.34Q31.61 7.54 30.38 7.54L30.38 7.54Q29.98 7.54 29.48 7.78Q28.99 8.02 28.22 8.47L28.22 8.47L28.22 18.19L24.86 18.48ZM37.80 18.48L37.80 5.11L41.16 4.82L41.16 7.01Q41.88 5.98 42.95 5.34Q44.02 4.70 45.67 4.70L45.67 4.70L45.67 7.99Q44.81 7.99 43.40 8.29Q42 8.59 41.16 9.34L41.16 9.34L41.16 18.19L37.80 18.48ZM47.81 22.61Q47.23 22.61 46.39 22.46L46.39 22.46L46.39 19.66Q47.28 19.70 47.81 19.70L47.81 19.70Q49.92 19.70 49.92 17.74L49.92 17.74L49.92 17.06L46.06 4.99L49.70 4.82L51.60 13.30L53.40 4.90L56.45 4.87L52.99 18.10Q52.27 20.69 50.89 21.65Q49.51 22.61 47.81 22.61L47.81 22.61ZM68.54 18.67Q65.88 18.67 64.64 16.01Q63.41 13.34 63.41 9.26L63.41 9.26Q63.41 6.98 64.00 4.87Q64.58 2.76 65.89 1.38Q67.20 0 69.24 0L69.24 0Q70.99 0 72.16 0.85Q73.32 1.70 73.88 3.11Q74.45 4.51 74.45 6.22L74.45 6.22L71.11 6.43L71.04 5.93Q70.90 4.51 70.54 3.67Q70.18 2.83 69.19 2.83L69.19 2.83Q67.94 2.83 67.43 4.84Q66.91 6.84 66.91 9.46L66.91 9.46Q66.91 11.30 67.03 12.60Q67.15 13.90 67.66 14.87Q68.16 15.84 69.22 15.84L69.22 15.84Q70.10 15.84 70.62 14.74Q71.14 13.63 71.14 12.02L71.14 12.02L69.36 12.02L69.65 9.34L74.52 9.34L74.52 18.19L73.18 18.34L72.36 15.00Q72.14 15.94 71.82 16.68Q71.50 17.42 70.70 18.05Q69.91 18.67 68.54 18.67L68.54 18.67ZM81.48 18.65Q79.08 18.65 77.81 16.74Q76.54 14.83 76.54 11.66L76.54 11.66Q76.54 8.45 77.83 6.55Q79.13 4.66 81.60 4.66L81.60 4.66Q83.95 4.66 85.20 6.55Q86.45 8.45 86.45 11.66L86.45 11.66Q86.45 11.86 86.38 11.94Q86.30 12.02 86.30 12.05L86.30 12.05L79.90 12.05Q79.90 13.61 80.30 14.89Q80.71 16.18 81.55 16.18L81.55 16.18Q82.49 16.18 82.94 15.10Q83.40 14.02 83.42 13.97L83.42 13.97L85.97 14.93Q85.46 16.66 84.36 17.65Q83.26 18.65 81.48 18.65L81.48 18.65ZM79.90 10.10L83.14 10.10Q83.14 8.66 82.75 7.82Q82.37 6.98 81.55 6.98L81.55 6.98Q81.14 6.98 80.76 7.39Q80.38 7.80 80.14 8.52Q79.90 9.24 79.90 10.10L79.90 10.10ZM88.49 18.48L88.49 5.11L91.85 4.82L91.85 6.55Q92.88 5.64 93.88 5.15Q94.87 4.66 95.71 4.66L95.71 4.66Q96.98 4.66 97.79 5.58Q98.59 6.50 98.59 8.06L98.59 8.06L98.59 18.19L95.23 18.48L95.23 9.34Q95.23 7.54 94.01 7.54L94.01 7.54Q93.60 7.54 93.11 7.78Q92.62 8.02 91.85 8.47L91.85 8.47L91.85 18.19L88.49 18.48ZM101.42 18.48L101.42 5.11L104.78 4.82L104.78 6.55Q105.82 5.64 106.81 5.15Q107.81 4.66 108.65 4.66L108.65 4.66Q109.92 4.66 110.72 5.58Q111.53 6.50 111.53 8.06L111.53 8.06L111.53 18.19L108.17 18.48L108.17 9.34Q108.17 7.54 106.94 7.54L106.94 7.54Q106.54 7.54 106.04 7.78Q105.55 8.02 104.78 8.47L104.78 8.47L104.78 18.19L101.42 18.48ZM118.66 18.65Q116.26 18.65 114.98 16.74Q113.71 14.83 113.71 11.66L113.71 11.66Q113.71 8.45 115.01 6.55Q116.30 4.66 118.78 4.66L118.78 4.66Q121.13 4.66 122.38 6.55Q123.62 8.45 123.62 11.66L123.62 11.66Q123.62 11.86 123.55 11.94Q123.48 12.02 123.48 12.05L123.48 12.05L117.07 12.05Q117.07 13.61 117.48 14.89Q117.89 16.18 118.73 16.18L118.73 16.18Q119.66 16.18 120.12 15.10Q120.58 14.02 120.60 13.97L120.60 13.97L123.14 14.93Q122.64 16.66 121.54 17.65Q120.43 18.65 118.66 18.65L118.66 18.65ZM117.07 10.10L120.31 10.10Q120.31 8.66 119.93 7.82Q119.54 6.98 118.73 6.98L118.73 6.98Q118.32 6.98 117.94 7.39Q117.55 7.80 117.31 8.52Q117.07 9.24 117.07 10.10L117.07 10.10ZM130.27 18.60Q128.64 18.60 127.51 17.77Q126.38 16.94 126.38 14.83L126.38 14.83L126.38 7.37L124.51 7.37L124.66 4.82L126.48 4.82L126.82 1.90L129.74 1.49L129.74 4.82L132.53 4.82L132.38 7.37L129.77 7.37L129.77 14.81Q129.77 15.53 130.13 15.84Q130.49 16.15 131.18 16.15L131.18 16.15Q131.57 16.15 132.48 16.01L132.48 16.01L132.48 18.34Q132.38 18.36 131.72 18.48Q131.06 18.60 130.27 18.60L130.27 18.60Z" transform="translate(0, 47)"></path></svg>